<svg xmlns="http://www.w3.org/2000/svg" width="40" height="28.168" viewBox="0 0 40 28.168">
  <g id="Paypal" transform="translate(-265.293 -636.441)">
    <rect id="Rectangle_2" data-name="Rectangle 2" width="40" height="28.168" rx="2" transform="translate(265.293 636.441)" fill="#253b80"/>
    <g id="Group_1" data-name="Group 1" transform="translate(271.284 646.792)">
      <path id="Path_1" data-name="Path 1" d="M317.216,721.945c-.119.782-.717.782-1.294.782h-.329l.231-1.46a.182.182,0,0,1,.179-.153h.151c.394,0,.765,0,.957.224A.726.726,0,0,1,317.216,721.945Zm-.251-2.041h-2.179a.3.3,0,0,0-.3.256l-.881,5.588a.181.181,0,0,0,.18.21h1.04a.3.3,0,0,0,.3-.256l.238-1.507a.3.3,0,0,1,.3-.256h.69a2.238,2.238,0,0,0,2.48-2.071,1.679,1.679,0,0,0-.278-1.407A2.022,2.022,0,0,0,316.964,719.9Z" transform="translate(-313.602 -719.904)" fill="#fff"/>
      <path id="Path_2" data-name="Path 2" d="M356.917,737.5a1.163,1.163,0,0,1-1.177,1,.809.809,0,0,1-.865-1.015,1.168,1.168,0,0,1,1.169-1,.881.881,0,0,1,.7.284A.9.9,0,0,1,356.917,737.5Zm1.455-2.031h-1.044a.182.182,0,0,0-.179.153l-.046.292-.073-.106a1.486,1.486,0,0,0-1.233-.437,2.4,2.4,0,0,0-2.33,2.1,1.97,1.97,0,0,0,.389,1.6,1.633,1.633,0,0,0,1.314.531,2,2,0,0,0,1.444-.6l-.046.29a.182.182,0,0,0,.179.21h.94a.3.3,0,0,0,.3-.256l.564-3.572A.181.181,0,0,0,358.371,735.464Z" transform="translate(-348.495 -733.448)" fill="#fff"/>
      <path id="Path_3" data-name="Path 3" d="M403.7,736.157h-1.049a.3.3,0,0,0-.251.133l-1.446,2.13-.613-2.047a.3.3,0,0,0-.291-.216h-1.03a.182.182,0,0,0-.172.24l1.155,3.39-1.086,1.533a.182.182,0,0,0,.148.287h1.047a.3.3,0,0,0,.249-.13l3.488-5.034A.182.182,0,0,0,403.7,736.157Z" transform="translate(-388.27 -734.141)" fill="#fff"/>
      <path id="Path_4" data-name="Path 4" d="M442.543,721.945c-.119.782-.716.782-1.294.782h-.329l.231-1.46a.181.181,0,0,1,.179-.153h.151c.393,0,.765,0,.956.224A.726.726,0,0,1,442.543,721.945Zm-.251-2.041h-2.18a.3.3,0,0,0-.3.256l-.881,5.588a.181.181,0,0,0,.179.21h1.119a.212.212,0,0,0,.209-.179l.25-1.584a.3.3,0,0,1,.3-.256h.69a2.238,2.238,0,0,0,2.481-2.071,1.678,1.678,0,0,0-.278-1.407A2.02,2.02,0,0,0,442.292,719.9Z" transform="translate(-423.386 -719.904)" fill="#fff"/>
      <path id="Path_5" data-name="Path 5" d="M482.251,737.5a1.163,1.163,0,0,1-1.177,1,.808.808,0,0,1-.864-1.015,1.169,1.169,0,0,1,1.169-1,.881.881,0,0,1,.7.284A.9.9,0,0,1,482.251,737.5Zm1.455-2.031h-1.043a.181.181,0,0,0-.179.153l-.046.292-.073-.106a1.485,1.485,0,0,0-1.232-.437,2.4,2.4,0,0,0-2.33,2.1,1.971,1.971,0,0,0,.388,1.6,1.634,1.634,0,0,0,1.314.531,2,2,0,0,0,1.444-.6l-.047.29a.182.182,0,0,0,.18.21h.94a.3.3,0,0,0,.3-.256l.564-3.572A.182.182,0,0,0,483.706,735.464Z" transform="translate(-458.286 -733.448)" fill="#fff"/>
      <path id="Path_6" data-name="Path 6" d="M522.143,720.055l-.894,5.69a.181.181,0,0,0,.179.21h.9a.3.3,0,0,0,.3-.256l.882-5.588a.182.182,0,0,0-.179-.21h-1.007A.182.182,0,0,0,522.143,720.055Z" transform="translate(-495.494 -719.902)" fill="#fff"/>
    </g>
  </g>
</svg>
