<svg xmlns="http://www.w3.org/2000/svg" width="21.25" height="26" viewBox="0 0 21.25 26">
  <path id="Skip" d="M-2073.313-4011a1.564,1.564,0,0,1-1.562-1.562v-7.813l-10.5,7.7a4.752,4.752,0,0,1-2.518.817A4.189,4.189,0,0,1-2092-4015.1v-17.28a4.216,4.216,0,0,1,4.109-3.252c1.123,0,2.635,1.15,7.124,4.565l.044.034c1.547,1.176,3.472,2.64,5.847,4.411v-7.813a1.564,1.564,0,0,1,1.562-1.563,1.565,1.565,0,0,1,1.563,1.563v21.875A1.564,1.564,0,0,1-2073.313-4011Zm-14.479-21.518c-.563,0-1.146.3-1.146.79,0,4.05-.032,7.177-.055,9.461v.038c-.052,5.142-.068,6.693.374,7.14a.958.958,0,0,0,.729.184c.234,0,2.389-1.355,11.325-7.811l.007-.006.493-.355a.788.788,0,0,0,.34-.642.761.761,0,0,0-.317-.617l-11.155-8.02A1.033,1.033,0,0,0-2087.792-4032.518Z" transform="translate(2092.5 4036.5)" fill="#fff" stroke="rgba(0,0,0,0)" stroke-miterlimit="10" stroke-width="1"/>
</svg>
